<svg width="102" height="49" viewBox="0 0 102 49" fill="none" xmlns="http://www.w3.org/2000/svg">
<path d="M10.072 48V7.744H0.856V0.319996H18.776V48H10.072ZM43.8205 48.768C41.3032 48.768 38.8925 48.2987 36.5885 47.36C34.3272 46.4213 32.3645 45.0987 30.7005 43.392C29.0792 41.6427 27.9698 39.5733 27.3725 37.184L34.9245 34.496C35.6498 36.672 36.8232 38.2933 38.4445 39.36C40.0658 40.384 41.8578 40.896 43.8205 40.896C45.4418 40.896 46.8712 40.5547 48.1085 39.872C49.3885 39.1467 50.3698 38.1653 51.0525 36.928C51.7352 35.648 52.0765 34.176 52.0765 32.512C52.0765 30.848 51.7138 29.3973 50.9885 28.16C50.3058 26.9227 49.3458 25.9627 48.1085 25.28C46.8712 24.5547 45.4418 24.192 43.8205 24.192C42.1565 24.192 40.6418 24.5547 39.2765 25.28C37.9538 26.0053 36.9938 27.0507 36.3965 28.416L29.2925 26.816L33.0685 0.319996H59.0525V7.68H36.5245L39.7885 3.904L37.1005 23.872L34.6045 21.824C35.7992 20.0747 37.2498 18.7947 38.9565 17.984C40.7058 17.1733 42.8178 16.768 45.2925 16.768C48.4498 16.768 51.1805 17.4507 53.4845 18.816C55.8312 20.1813 57.6445 22.0373 58.9245 24.384C60.2045 26.7307 60.8445 29.44 60.8445 32.512C60.8445 35.584 60.0978 38.3573 58.6045 40.832C57.1112 43.3067 55.0845 45.248 52.5245 46.656C49.9645 48.064 47.0632 48.768 43.8205 48.768Z" fill="#1A2434"/>
<path d="M81.7235 48V35.584H69.3075V28.352H81.7235V16H88.9555V28.352H101.308V35.584H88.9555V48H81.7235Z" fill="#A4074D"/>
</svg>
