<svg width="117" height="49" viewBox="0 0 117 49" fill="none" xmlns="http://www.w3.org/2000/svg">
<path d="M22.192 48V37.504H0.304V30.208L21.68 0.319996H30.768V30.208H37.744V37.504H30.768V48H22.192ZM6.704 33.344L5.168 30.208H22.192V7.168L24.432 7.872L6.704 33.344ZM58.883 48.768C56.3657 48.768 53.955 48.2987 51.651 47.36C49.3897 46.4213 47.427 45.0987 45.763 43.392C44.1417 41.6427 43.0323 39.5733 42.435 37.184L49.987 34.496C50.7123 36.672 51.8857 38.2933 53.507 39.36C55.1283 40.384 56.9203 40.896 58.883 40.896C60.5043 40.896 61.9337 40.5547 63.171 39.872C64.451 39.1467 65.4323 38.1653 66.115 36.928C66.7977 35.648 67.139 34.176 67.139 32.512C67.139 30.848 66.7763 29.3973 66.051 28.16C65.3683 26.9227 64.4083 25.9627 63.171 25.28C61.9337 24.5547 60.5043 24.192 58.883 24.192C57.219 24.192 55.7043 24.5547 54.339 25.28C53.0163 26.0053 52.0563 27.0507 51.459 28.416L44.355 26.816L48.131 0.319996H74.115V7.68H51.587L54.851 3.904L52.163 23.872L49.667 21.824C50.8617 20.0747 52.3123 18.7947 54.019 17.984C55.7683 17.1733 57.8803 16.768 60.355 16.768C63.5123 16.768 66.243 17.4507 68.547 18.816C70.8937 20.1813 72.707 22.0373 73.987 24.384C75.267 26.7307 75.907 29.44 75.907 32.512C75.907 35.584 75.1603 38.3573 73.667 40.832C72.1737 43.3067 70.147 45.248 67.587 46.656C65.027 48.064 62.1257 48.768 58.883 48.768Z" fill="#1A2434"/>
<path d="M96.786 48V35.584H84.37V28.352H96.786V16H104.018V28.352H116.37V35.584H104.018V48H96.786Z" fill="#A4074D"/>
</svg>
