<svg width="152" height="50" viewBox="0 0 152 50" fill="none" xmlns="http://www.w3.org/2000/svg">
<path d="M10.072 49V8.744H0.856V1.32H18.776V49H10.072ZM47.4685 49.768C43.6712 49.768 40.3432 48.744 37.4845 46.696C34.6258 44.648 32.3858 41.768 30.7645 38.056C29.1858 34.344 28.3965 30.0347 28.3965 25.128C28.3965 20.1787 29.1858 15.8693 30.7645 12.2C32.3432 8.53067 34.5618 5.672 37.4205 3.624C40.2792 1.576 43.6072 0.551998 47.4045 0.551998C51.2872 0.551998 54.6365 1.576 57.4525 3.624C60.3112 5.672 62.5512 8.552 64.1725 12.264C65.7938 15.9333 66.6045 20.2213 66.6045 25.128C66.6045 30.0347 65.7938 34.344 64.1725 38.056C62.5938 41.7253 60.3752 44.6053 57.5165 46.696C54.6578 48.744 51.3085 49.768 47.4685 49.768ZM47.5325 41.832C49.7085 41.832 51.5645 41.1707 53.1005 39.848C54.6365 38.4827 55.8098 36.5627 56.6205 34.088C57.4738 31.5707 57.9005 28.584 57.9005 25.128C57.9005 21.672 57.4738 18.7067 56.6205 16.232C55.8098 13.7147 54.6152 11.7947 53.0365 10.472C51.5005 9.14933 49.6232 8.488 47.4045 8.488C45.2712 8.488 43.4365 9.14933 41.9005 10.472C40.3645 11.7947 39.1698 13.7147 38.3165 16.232C37.5058 18.7067 37.1005 21.672 37.1005 25.128C37.1005 28.5413 37.5058 31.5067 38.3165 34.024C39.1698 36.4987 40.3645 38.4187 41.9005 39.784C43.4792 41.1493 45.3565 41.832 47.5325 41.832ZM92.781 49.768C88.9837 49.768 85.6557 48.744 82.797 46.696C79.9383 44.648 77.6983 41.768 76.077 38.056C74.4983 34.344 73.709 30.0347 73.709 25.128C73.709 20.1787 74.4983 15.8693 76.077 12.2C77.6557 8.53067 79.8743 5.672 82.733 3.624C85.5917 1.576 88.9197 0.551998 92.717 0.551998C96.5997 0.551998 99.949 1.576 102.765 3.624C105.624 5.672 107.864 8.552 109.485 12.264C111.106 15.9333 111.917 20.2213 111.917 25.128C111.917 30.0347 111.106 34.344 109.485 38.056C107.906 41.7253 105.688 44.6053 102.829 46.696C99.9703 48.744 96.621 49.768 92.781 49.768ZM92.845 41.832C95.021 41.832 96.877 41.1707 98.413 39.848C99.949 38.4827 101.122 36.5627 101.933 34.088C102.786 31.5707 103.213 28.584 103.213 25.128C103.213 21.672 102.786 18.7067 101.933 16.232C101.122 13.7147 99.9277 11.7947 98.349 10.472C96.813 9.14933 94.9357 8.488 92.717 8.488C90.5837 8.488 88.749 9.14933 87.213 10.472C85.677 11.7947 84.4823 13.7147 83.629 16.232C82.8183 18.7067 82.413 21.672 82.413 25.128C82.413 28.5413 82.8183 31.5067 83.629 34.024C84.4823 36.4987 85.677 38.4187 87.213 39.784C88.7917 41.1493 90.669 41.832 92.845 41.832Z" fill="#1A2434"/>
<path d="M119.342 49V0.551998H127.726V32.296L124.526 31.336L140.91 14.184H151.342L138.478 28.2L151.597 49H141.998L130.606 30.952L135.598 29.928L125.102 41.192L127.726 36.072V49H119.342Z" fill="#A4074D"/>
</svg>
