<svg width="140" height="50" viewBox="0 0 140 50" fill="none" xmlns="http://www.w3.org/2000/svg">
<path d="M4.016 49L20.208 28.136L21.68 29.672C21.04 30.1413 20.4213 30.5253 19.824 30.824C19.2267 31.1227 18.5867 31.336 17.904 31.464C17.2213 31.592 16.496 31.656 15.728 31.656C12.8267 31.656 10.2453 30.9947 7.984 29.672C5.72267 28.3493 3.93067 26.5573 2.608 24.296C1.328 21.992 0.688 19.3893 0.688 16.488C0.688 13.416 1.392 10.6853 2.8 8.296C4.25067 5.90666 6.21333 4.02933 8.688 2.664C11.2053 1.256 14.064 0.551998 17.264 0.551998C20.5067 0.551998 23.3653 1.23466 25.84 2.6C28.3147 3.96533 30.256 5.84267 31.664 8.232C33.1147 10.5787 33.84 13.288 33.84 16.36C33.84 17.896 33.6693 19.432 33.328 20.968C32.9867 22.504 32.368 24.1467 31.472 25.896C30.6187 27.6027 29.3813 29.544 27.76 31.72L14.448 49H4.016ZM17.264 24.36C18.7573 24.36 20.08 24.04 21.232 23.4C22.4267 22.7173 23.3653 21.7787 24.048 20.584C24.7307 19.3467 25.072 17.96 25.072 16.424C25.072 14.8027 24.7093 13.3947 23.984 12.2C23.3013 11.0053 22.384 10.0667 21.232 9.384C20.08 8.70133 18.7573 8.36 17.264 8.36C15.8133 8.36 14.4907 8.70133 13.296 9.384C12.1013 10.0667 11.1413 11.0053 10.416 12.2C9.73333 13.3947 9.392 14.8027 9.392 16.424C9.392 17.96 9.73333 19.3467 10.416 20.584C11.1413 21.7787 12.1013 22.7173 13.296 23.4C14.4907 24.04 15.8133 24.36 17.264 24.36ZM56.724 49.768C53.268 49.768 50.26 49.128 47.7 47.848C45.1827 46.5253 43.22 44.7547 41.812 42.536C40.4467 40.3173 39.764 37.8853 39.764 35.24C39.764 32.1253 40.596 29.5013 42.26 27.368C43.924 25.192 46.3347 23.592 49.492 22.568L48.98 24.68C46.7187 23.9547 44.9267 22.5467 43.604 20.456C42.324 18.3653 41.684 16.0613 41.684 13.544C41.684 11.0267 42.324 8.78666 43.604 6.824C44.884 4.86133 46.6547 3.32533 48.916 2.216C51.1773 1.10667 53.78 0.551998 56.724 0.551998C59.6253 0.551998 62.1853 1.10667 64.404 2.216C66.6653 3.32533 68.436 4.86133 69.716 6.824C71.0387 8.78666 71.7 11.0267 71.7 13.544C71.7 16.104 71.0387 18.4293 69.716 20.52C68.436 22.568 66.6653 23.976 64.404 24.744L63.956 22.504C67.1133 23.6133 69.524 25.256 71.188 27.432C72.852 29.5653 73.684 32.1893 73.684 35.304C73.684 37.9493 72.98 40.3813 71.572 42.6C70.2067 44.776 68.244 46.5253 65.684 47.848C63.1667 49.128 60.18 49.768 56.724 49.768ZM56.724 42.408C58.388 42.408 59.8387 42.1093 61.076 41.512C62.3133 40.872 63.2733 39.9973 63.956 38.888C64.6387 37.736 64.98 36.4347 64.98 34.984C64.98 33.4907 64.6387 32.2107 63.956 31.144C63.2733 30.0347 62.3133 29.1813 61.076 28.584C59.8387 27.944 58.388 27.624 56.724 27.624C55.06 27.624 53.6093 27.944 52.372 28.584C51.1773 29.1813 50.2387 30.0347 49.556 31.144C48.8733 32.2107 48.532 33.4907 48.532 34.984C48.532 36.4347 48.8733 37.736 49.556 38.888C50.2387 39.9973 51.1773 40.872 52.372 41.512C53.6093 42.1093 55.06 42.408 56.724 42.408ZM56.724 20.264C57.9613 20.264 59.0493 19.9867 59.988 19.432C60.9267 18.8773 61.652 18.152 62.164 17.256C62.7187 16.3173 62.996 15.2507 62.996 14.056C62.996 12.8613 62.7187 11.816 62.164 10.92C61.652 9.98133 60.9267 9.256 59.988 8.744C59.0493 8.18933 57.9613 7.912 56.724 7.912C55.4867 7.912 54.3773 8.18933 53.396 8.744C52.4573 9.256 51.7107 9.98133 51.156 10.92C50.644 11.816 50.388 12.8613 50.388 14.056C50.388 15.2507 50.644 16.3173 51.156 17.256C51.7107 18.152 52.4573 18.8773 53.396 19.432C54.3773 19.9867 55.4867 20.264 56.724 20.264Z" fill="#1A2434"/>
<path d="M86.7295 49L125.386 1.32H134.346L95.6895 49H86.7295ZM94.1535 25.512C91.8068 25.512 89.6735 24.9573 87.7535 23.848C85.8762 22.696 84.3828 21.1813 83.2735 19.304C82.1642 17.4267 81.6095 15.336 81.6095 13.032C81.6095 10.728 82.1642 8.63733 83.2735 6.76C84.3828 4.84 85.8762 3.32533 87.7535 2.216C89.6735 1.10667 91.8068 0.551998 94.1535 0.551998C96.5428 0.551998 98.6762 1.10667 100.554 2.216C102.431 3.32533 103.924 4.84 105.034 6.76C106.143 8.63733 106.698 10.728 106.698 13.032C106.698 15.336 106.143 17.4267 105.034 19.304C103.924 21.1813 102.431 22.696 100.554 23.848C98.6762 24.9573 96.5428 25.512 94.1535 25.512ZM94.1535 19.048C95.4335 19.048 96.5002 18.7707 97.3535 18.216C98.2068 17.6187 98.8468 16.872 99.2735 15.976C99.7428 15.0373 99.9775 14.056 99.9775 13.032C99.9775 11.9653 99.7428 10.984 99.2735 10.088C98.8468 9.192 98.2068 8.44533 97.3535 7.848C96.5002 7.25067 95.4335 6.952 94.1535 6.952C92.9588 6.952 91.9135 7.25067 91.0175 7.848C90.1642 8.44533 89.5028 9.21333 89.0335 10.152C88.5642 11.048 88.3295 12.008 88.3295 13.032C88.3295 14.0133 88.5642 14.9733 89.0335 15.912C89.5028 16.8507 90.1642 17.6187 91.0175 18.216C91.9135 18.7707 92.9588 19.048 94.1535 19.048ZM126.666 49.768C124.319 49.768 122.186 49.2133 120.266 48.104C118.388 46.952 116.895 45.4373 115.786 43.56C114.676 41.6827 114.122 39.592 114.122 37.288C114.122 34.984 114.676 32.8933 115.786 31.016C116.895 29.096 118.388 27.5813 120.266 26.472C122.186 25.3627 124.319 24.808 126.666 24.808C129.055 24.808 131.188 25.3627 133.066 26.472C134.943 27.5813 136.436 29.096 137.546 31.016C138.655 32.8933 139.21 34.984 139.21 37.288C139.21 39.592 138.655 41.6827 137.546 43.56C136.436 45.4373 134.943 46.952 133.066 48.104C131.188 49.2133 129.055 49.768 126.666 49.768ZM126.666 43.304C127.903 43.304 128.948 43.0267 129.802 42.472C130.698 41.8747 131.359 41.128 131.786 40.232C132.255 39.2933 132.49 38.312 132.49 37.288C132.49 36.2213 132.255 35.24 131.786 34.344C131.359 33.448 130.698 32.7013 129.802 32.104C128.948 31.5067 127.903 31.208 126.666 31.208C125.471 31.208 124.426 31.5067 123.53 32.104C122.676 32.7013 122.015 33.4693 121.546 34.408C121.076 35.304 120.842 36.264 120.842 37.288C120.842 38.2693 121.076 39.2293 121.546 40.168C122.015 41.1067 122.676 41.8747 123.53 42.472C124.426 43.0267 125.471 43.304 126.666 43.304Z" fill="#A4074D"/>
</svg>
